<?xml version="1.0" standalone="no"?>
<!DOCTYPE svg PUBLIC "-//W3C//DTD SVG 20010904//EN"
 "http://www.w3.org/TR/2001/REC-SVG-20010904/DTD/svg10.dtd">
<svg version="1.0" xmlns="http://www.w3.org/2000/svg"
 width="960.000000pt" height="960.000000pt" viewBox="0 0 960.000000 960.000000"
 preserveAspectRatio="xMidYMid meet">

<g transform="translate(0.000000,960.000000) scale(0.100000,-0.100000)"
fill="#000000" stroke="none">
<path d="M2504 8499 c-37 -18 -90 -87 -438 -575 -219 -305 -401 -565 -405
-577 -11 -32 5 -82 31 -95 17 -8 338 -12 1123 -14 l1100 -3 89 125 c243 339
816 1151 816 1155 0 3 -512 5 -1137 5 -1127 0 -1138 0 -1179 -21z"/>
<path d="M5010 8512 c0 -5 202 -294 448 -643 l449 -634 1103 -3 c1210 -2 1138
-6 1161 56 8 20 7 34 -4 57 -14 29 -761 1080 -795 1119 -9 10 -35 27 -57 37
-38 18 -95 19 -1172 19 -623 0 -1133 -4 -1133 -8z"/>
<path d="M5082 6505 l3 -1310 1110 0 c1064 0 1111 1 1145 19 49 26 79 55 103
101 22 40 22 44 25 808 l3 767 -834 0 c-597 0 -844 3 -868 11 -61 21 -37 -10
-517 674 -85 121 -159 224 -163 230 -5 5 -8 -558 -7 -1300z"/>
<path d="M4459 7413 c-151 -212 -292 -409 -314 -437 -72 -90 -18 -85 -963 -86
l-822 0 2 -777 3 -778 26 -38 c37 -52 82 -84 141 -96 33 -7 407 -11 1128 -11
l1080 0 0 1305 c0 718 -2 1305 -4 1305 -2 0 -127 -174 -277 -387z"/>
<path d="M1914 4261 c-69 -42 -64 66 -64 -1515 0 -1564 -4 -1464 58 -1511 26
-19 43 -20 502 -20 l475 0 50 27 c64 34 97 69 129 138 l26 55 0 1312 0 1312
-24 54 c-30 69 -85 121 -153 147 -51 19 -76 20 -511 20 -429 0 -459 -1 -488
-19z"/>
<path d="M4515 4163 c-74 -10 -197 -44 -272 -76 -106 -45 -195 -105 -313 -212
-150 -136 -272 -207 -420 -243 l-75 -18 -3 -937 -2 -937 1330 0 c868 0 1365 4
1428 11 385 41 744 192 1046 437 170 139 361 376 471 586 87 165 343 776 354
844 28 173 -57 369 -203 466 -106 70 -145 79 -384 84 -359 7 -498 -29 -670
-176 -70 -59 -119 -127 -180 -248 -60 -120 -205 -317 -296 -402 -122 -114
-266 -195 -441 -249 l-90 -28 -573 -3 c-643 -3 -616 -6 -668 70 -39 56 -40
129 -1 184 50 73 13 68 627 74 l555 6 88 31 c48 17 105 42 127 57 39 26 39 26
34 78 -18 169 -74 288 -194 409 -97 98 -179 145 -314 179 -74 19 -109 20 -505
19 -234 -1 -439 -4 -456 -6z"/>
</g>
</svg>
